<svg xmlns="http://www.w3.org/2000/svg" width="920" height="430" viewBox="0 0 920 430">
<rect width="920" height="430" fill="#ffffff"/>
<defs>
  <marker id="aInk" markerWidth="11" markerHeight="11" refX="8" refY="3.2" orient="auto" markerUnits="strokeWidth"><path d="M0,0 L8.5,3.2 L0,6.4 Z" fill="#1b1b1b"/></marker>
  <marker id="aRed" markerWidth="11" markerHeight="11" refX="8" refY="3.2" orient="auto" markerUnits="strokeWidth"><path d="M0,0 L8.5,3.2 L0,6.4 Z" fill="#c0271e"/></marker>
  <marker id="aBlue" markerWidth="11" markerHeight="11" refX="8" refY="3.2" orient="auto" markerUnits="strokeWidth"><path d="M0,0 L8.5,3.2 L0,6.4 Z" fill="#1f47b5"/></marker>
  <marker id="aGreen" markerWidth="11" markerHeight="11" refX="8" refY="3.2" orient="auto" markerUnits="strokeWidth"><path d="M0,0 L8.5,3.2 L0,6.4 Z" fill="#1f8a3b"/></marker>
  <marker id="aGrey" markerWidth="11" markerHeight="11" refX="8" refY="3.2" orient="auto" markerUnits="strokeWidth"><path d="M0,0 L8.5,3.2 L0,6.4 Z" fill="#8a8a8a"/></marker>
  <marker id="aAmb" markerWidth="11" markerHeight="11" refX="8" refY="3.2" orient="auto" markerUnits="strokeWidth"><path d="M0,0 L8.5,3.2 L0,6.4 Z" fill="#b08900"/></marker>
</defs>
<text x="460.0" y="34.0" font-family="Segoe UI, Arial, Helvetica, sans-serif" font-size="19.5" fill="#1b1b1b" text-anchor="middle" font-weight="bold" font-style="normal">Три ручки несучої: що саме можна змінювати</text>
<text x="460.0" y="58.0" font-family="Segoe UI, Arial, Helvetica, sans-serif" font-size="13" fill="#1b1b1b" text-anchor="middle" font-weight="bold" font-style="normal">y(t) = A · sin(2π f t + φ)  — рівно три параметри, отже три родини модуляції</text>
<rect x="50.0" y="92.0" width="270.0" height="300.0" rx="12" fill="#fbfbfb" stroke="#c0271e" stroke-width="2"/>
<text x="185.0" y="120.0" font-family="Segoe UI, Arial, Helvetica, sans-serif" font-size="22" fill="#c0271e" text-anchor="middle" font-weight="bold" font-style="normal">A</text>
<text x="185.0" y="142.0" font-family="Segoe UI, Arial, Helvetica, sans-serif" font-size="13" fill="#1b1b1b" text-anchor="middle" font-weight="bold" font-style="normal">амплітуда</text>
<path d="M 75.0,215.0 L 76.4,199.0 L 77.8,188.0 L 79.1,186.8 L 80.5,196.9 L 81.9,215.0 L 83.2,234.4 L 84.6,247.5 L 86.0,248.4 L 87.4,236.2 L 88.8,215.0 L 90.1,192.7 L 91.5,178.3 L 92.9,177.6 L 94.2,191.5 L 95.6,215.0 L 97.0,239.0 L 98.4,254.2 L 99.8,254.4 L 101.1,239.4 L 102.5,215.0 L 103.9,190.6 L 105.2,175.6 L 106.6,175.8 L 108.0,191.0 L 109.4,215.0 L 110.8,238.5 L 112.1,252.4 L 113.5,251.7 L 114.9,237.3 L 116.2,215.0 L 117.6,193.8 L 119.0,181.6 L 120.4,182.5 L 121.8,195.6 L 123.1,215.0 L 124.5,233.1 L 125.9,243.2 L 127.2,242.0 L 128.6,231.0 L 130.0,215.0 L 131.4,200.4 L 132.8,192.6 L 134.1,193.7 L 135.5,202.6 L 136.9,215.0 L 138.2,226.1 L 139.6,232.0 L 141.0,231.0 L 142.4,224.3 L 143.8,215.0 L 145.1,206.7 L 146.5,202.3 L 147.9,202.9 L 149.2,207.9 L 150.6,215.0 L 152.0,221.6 L 153.4,225.3 L 154.8,225.1 L 156.1,221.1 L 157.5,215.0 L 158.9,208.9 L 160.2,204.9 L 161.6,204.7 L 163.0,208.4 L 164.4,215.0 L 165.8,222.1 L 167.1,227.1 L 168.5,227.7 L 169.9,223.3 L 171.2,215.0 L 172.6,205.7 L 174.0,199.0 L 175.4,198.0 L 176.8,203.9 L 178.1,215.0 L 179.5,227.4 L 180.9,236.3 L 182.2,237.4 L 183.6,229.6 L 185.0,215.0 L 186.4,199.0 L 187.8,188.0 L 189.1,186.8 L 190.5,196.9 L 191.9,215.0 L 193.2,234.4 L 194.6,247.5 L 196.0,248.4 L 197.4,236.2 L 198.8,215.0 L 200.1,192.7 L 201.5,178.3 L 202.9,177.6 L 204.2,191.5 L 205.6,215.0 L 207.0,239.0 L 208.4,254.2 L 209.8,254.4 L 211.1,239.4 L 212.5,215.0 L 213.9,190.6 L 215.2,175.6 L 216.6,175.8 L 218.0,191.0 L 219.4,215.0 L 220.8,238.5 L 222.1,252.4 L 223.5,251.7 L 224.9,237.3 L 226.2,215.0 L 227.6,193.8 L 229.0,181.6 L 230.4,182.5 L 231.8,195.6 L 233.1,215.0 L 234.5,233.1 L 235.9,243.2 L 237.2,242.0 L 238.6,231.0 L 240.0,215.0 L 241.4,200.4 L 242.8,192.6 L 244.1,193.7 L 245.5,202.6 L 246.9,215.0 L 248.2,226.1 L 249.6,232.0 L 251.0,231.0 L 252.4,224.3 L 253.8,215.0 L 255.1,206.7 L 256.5,202.3 L 257.9,202.9 L 259.2,207.9 L 260.6,215.0 L 262.0,221.6 L 263.4,225.3 L 264.8,225.1 L 266.1,221.1 L 267.5,215.0 L 268.9,208.9 L 270.2,204.9 L 271.6,204.7 L 273.0,208.4 L 274.4,215.0 L 275.8,222.1 L 277.1,227.1 L 278.5,227.7 L 279.9,223.3 L 281.2,215.0 L 282.6,205.7 L 284.0,199.0 L 285.4,198.0 L 286.8,203.9 L 288.1,215.0 L 289.5,227.4 L 290.9,236.3 L 292.2,237.4 L 293.6,229.6 L 295.0,215.0" fill="none" stroke="#c0271e" stroke-width="2"/>
<text x="185.0" y="280.0" font-family="Segoe UI, Arial, Helvetica, sans-serif" font-size="11" fill="#1b1b1b" text-anchor="middle" font-weight="normal" font-style="normal">міняємо висота хвилі</text>
<rect x="125.0" y="300.0" width="120.0" height="34.0" rx="6" fill="#fdeeee" stroke="#c0271e" stroke-width="1.6"/>
<text x="185.0" y="323.0" font-family="Segoe UI, Arial, Helvetica, sans-serif" font-size="16" fill="#c0271e" text-anchor="middle" font-weight="bold" font-style="normal">AM</text>
<text x="185.0" y="360.0" font-family="Segoe UI, Arial, Helvetica, sans-serif" font-size="10" fill="#8a8a8a" text-anchor="middle" font-weight="normal" font-style="italic">амплітудна модуляція</text>
<rect x="340.0" y="92.0" width="270.0" height="300.0" rx="12" fill="#fbfbfb" stroke="#1f8a3b" stroke-width="2"/>
<text x="475.0" y="120.0" font-family="Segoe UI, Arial, Helvetica, sans-serif" font-size="22" fill="#1f8a3b" text-anchor="middle" font-weight="bold" font-style="normal">f</text>
<text x="475.0" y="142.0" font-family="Segoe UI, Arial, Helvetica, sans-serif" font-size="13" fill="#1b1b1b" text-anchor="middle" font-weight="bold" font-style="normal">частота</text>
<path d="M 365.0,215.0 L 366.1,195.0 L 367.2,189.4 L 368.3,202.2 L 369.4,223.8 L 370.5,239.2 L 371.6,238.4 L 372.7,222.7 L 373.8,202.7 L 374.9,190.2 L 376.0,191.5 L 377.1,204.6 L 378.2,222.1 L 379.3,235.9 L 380.4,241.0 L 381.5,236.9 L 382.6,226.3 L 383.7,213.3 L 384.8,201.6 L 385.9,193.5 L 387.0,189.5 L 388.1,189.3 L 389.2,191.9 L 390.3,196.1 L 391.4,200.9 L 392.5,205.6 L 393.6,209.7 L 394.7,213.1 L 395.8,215.7 L 396.9,217.4 L 398.0,218.3 L 399.1,218.5 L 400.2,218.0 L 401.3,217.0 L 402.4,215.4 L 403.5,213.3 L 404.6,210.9 L 405.7,208.2 L 406.8,205.3 L 407.9,202.5 L 409.0,199.7 L 410.1,197.2 L 411.2,195.0 L 412.3,193.2 L 413.4,191.9 L 414.5,190.8 L 415.6,190.2 L 416.7,189.7 L 417.8,189.5 L 418.9,189.4 L 420.0,189.5 L 421.1,189.6 L 422.2,190.1 L 423.3,190.9 L 424.4,192.4 L 425.5,194.9 L 426.6,198.6 L 427.7,203.9 L 428.8,210.8 L 429.9,219.0 L 431.0,227.7 L 432.1,235.5 L 433.2,240.3 L 434.3,240.2 L 435.4,233.8 L 436.5,221.6 L 437.6,206.6 L 438.7,193.8 L 439.8,189.0 L 440.9,195.5 L 442.0,211.7 L 443.1,230.1 L 444.2,240.6 L 445.3,236.2 L 446.4,218.7 L 447.5,198.4 L 448.6,189.0 L 449.7,197.5 L 450.8,218.4 L 451.9,237.0 L 453.0,239.7 L 454.1,224.6 L 455.2,202.6 L 456.3,189.5 L 457.4,194.4 L 458.5,213.3 L 459.6,233.1 L 460.7,241.0 L 461.8,233.0 L 462.9,214.8 L 464.0,197.2 L 465.1,189.1 L 466.2,193.4 L 467.3,206.7 L 468.4,222.7 L 469.5,235.1 L 470.6,240.8 L 471.7,239.1 L 472.8,232.1 L 473.9,222.2 L 475.0,212.0 L 476.1,203.1 L 477.2,196.5 L 478.3,192.2 L 479.4,189.9 L 480.5,189.0 L 481.6,189.2 L 482.7,189.8 L 483.8,190.5 L 484.9,191.1 L 486.0,191.5 L 487.1,191.6 L 488.2,191.4 L 489.3,191.0 L 490.4,190.4 L 491.5,189.8 L 492.6,189.3 L 493.7,189.0 L 494.8,189.1 L 495.9,189.5 L 497.0,190.3 L 498.1,191.5 L 499.2,193.0 L 500.3,194.7 L 501.4,196.6 L 502.5,198.4 L 503.6,200.0 L 504.7,201.4 L 505.8,202.3 L 506.9,202.7 L 508.0,202.5 L 509.1,201.7 L 510.2,200.3 L 511.3,198.2 L 512.4,195.8 L 513.5,193.1 L 514.6,190.8 L 515.7,189.2 L 516.8,189.3 L 517.9,191.8 L 519.0,197.4 L 520.1,206.1 L 521.2,217.3 L 522.3,228.9 L 523.4,237.9 L 524.5,241.0 L 525.6,235.8 L 526.7,222.8 L 527.8,206.0 L 528.9,192.6 L 530.0,189.5 L 531.1,199.5 L 532.2,218.5 L 533.3,235.8 L 534.4,240.6 L 535.5,228.9 L 536.6,207.7 L 537.7,191.3 L 538.8,191.5 L 539.9,208.5 L 541.0,230.3 L 542.1,240.9 L 543.2,232.9 L 544.3,212.1 L 545.4,193.5 L 546.5,189.8 L 547.6,202.8 L 548.7,223.4 L 549.8,238.4 L 550.9,239.6 L 552.0,227.5 L 553.1,209.4 L 554.2,194.6 L 555.3,189.0 L 556.4,193.7 L 557.5,205.6 L 558.6,219.7 L 559.7,231.6 L 560.8,238.9 L 561.9,241.0 L 563.0,238.6 L 564.1,233.3 L 565.2,226.7 L 566.3,219.8 L 567.4,213.6 L 568.5,208.4 L 569.6,204.3 L 570.7,201.3 L 571.8,199.2 L 572.9,197.9 L 574.0,197.2 L 575.1,197.0 L 576.2,197.4 L 577.3,198.2 L 578.4,199.4 L 579.5,201.1 L 580.6,203.2 L 581.7,205.8 L 582.8,208.6 L 583.9,211.8 L 585.0,215.0" fill="none" stroke="#1f8a3b" stroke-width="2"/>
<text x="475.0" y="280.0" font-family="Segoe UI, Arial, Helvetica, sans-serif" font-size="11" fill="#1b1b1b" text-anchor="middle" font-weight="normal" font-style="normal">міняємо частота хвилі</text>
<rect x="415.0" y="300.0" width="120.0" height="34.0" rx="6" fill="#eef6ef" stroke="#1f8a3b" stroke-width="1.6"/>
<text x="475.0" y="323.0" font-family="Segoe UI, Arial, Helvetica, sans-serif" font-size="16" fill="#1f8a3b" text-anchor="middle" font-weight="bold" font-style="normal">FM</text>
<text x="475.0" y="360.0" font-family="Segoe UI, Arial, Helvetica, sans-serif" font-size="10" fill="#8a8a8a" text-anchor="middle" font-weight="normal" font-style="italic">частотна модуляція</text>
<rect x="630.0" y="92.0" width="270.0" height="300.0" rx="12" fill="#fbfbfb" stroke="#b08900" stroke-width="2"/>
<text x="765.0" y="120.0" font-family="Segoe UI, Arial, Helvetica, sans-serif" font-size="22" fill="#b08900" text-anchor="middle" font-weight="bold" font-style="normal">φ</text>
<text x="765.0" y="142.0" font-family="Segoe UI, Arial, Helvetica, sans-serif" font-size="13" fill="#1b1b1b" text-anchor="middle" font-weight="bold" font-style="normal">фаза</text>
<path d="M 655.0,215.0 L 656.8,197.6 L 658.7,189.1 L 660.5,194.0 L 662.3,209.6 L 664.2,228.0 L 666.0,239.7 L 667.8,238.8 L 669.7,225.6 L 671.5,207.0 L 673.3,192.5 L 675.2,189.6 L 677.0,199.7 L 678.8,217.7 L 680.7,234.3 L 682.5,241.0 L 684.3,234.3 L 686.2,217.7 L 688.0,199.7 L 689.8,189.6 L 691.7,192.5 L 693.5,207.0 L 695.3,225.6 L 697.2,238.8 L 699.0,239.7 L 700.8,228.0 L 702.7,209.6 L 704.5,194.0 L 706.3,189.1 L 708.2,197.6 L 710.0,215.0 L 711.8,232.4 L 713.7,240.9 L 715.5,236.0 L 717.3,220.4 L 719.2,202.0 L 721.0,190.3 L 722.8,191.2 L 724.7,204.4 L 726.5,223.0 L 728.3,237.5 L 730.2,240.4 L 732.0,230.3 L 733.8,212.3 L 735.7,195.7 L 737.5,189.0 L 739.3,195.7 L 741.2,212.3 L 743.0,230.3 L 744.8,240.4 L 746.7,237.5 L 748.5,223.0 L 750.3,204.4 L 752.2,191.2 L 754.0,190.3 L 755.8,202.0 L 757.7,220.4 L 759.5,236.0 L 761.3,240.9 L 763.2,232.4 L 765.0,215.0" fill="none" stroke="#b08900" stroke-width="2"/>
<path d="M 765.0,215.0 L 766.8,232.4 L 768.7,240.9 L 770.5,236.0 L 772.3,220.4 L 774.2,202.0 L 776.0,190.3 L 777.8,191.2 L 779.7,204.4 L 781.5,223.0 L 783.3,237.5 L 785.2,240.4 L 787.0,230.3 L 788.8,212.3 L 790.7,195.7 L 792.5,189.0 L 794.3,195.7 L 796.2,212.3 L 798.0,230.3 L 799.8,240.4 L 801.7,237.5 L 803.5,223.0 L 805.3,204.4 L 807.2,191.2 L 809.0,190.3 L 810.8,202.0 L 812.7,220.4 L 814.5,236.0 L 816.3,240.9 L 818.2,232.4 L 820.0,215.0 L 821.8,197.6 L 823.7,189.1 L 825.5,194.0 L 827.3,209.6 L 829.2,228.0 L 831.0,239.7 L 832.8,238.8 L 834.7,225.6 L 836.5,207.0 L 838.3,192.5 L 840.2,189.6 L 842.0,199.7 L 843.8,217.7 L 845.7,234.3 L 847.5,241.0 L 849.3,234.3 L 851.2,217.7 L 853.0,199.7 L 854.8,189.6 L 856.7,192.5 L 858.5,207.0 L 860.3,225.6 L 862.2,238.8 L 864.0,239.7 L 865.8,228.0 L 867.7,209.6 L 869.5,194.0 L 871.3,189.1 L 873.2,197.6 L 875.0,215.0" fill="none" stroke="#b08900" stroke-width="2"/>
<line x1="765.0" y1="188.0" x2="765.0" y2="242.0" stroke="#8a8a8a" stroke-width="1.2" stroke-dasharray="3 3" stroke-linecap="round"/>
<text x="765.0" y="280.0" font-family="Segoe UI, Arial, Helvetica, sans-serif" font-size="11" fill="#1b1b1b" text-anchor="middle" font-weight="normal" font-style="normal">міняємо зсув хвилі</text>
<rect x="705.0" y="300.0" width="120.0" height="34.0" rx="6" fill="#fbf3df" stroke="#b08900" stroke-width="1.6"/>
<text x="765.0" y="323.0" font-family="Segoe UI, Arial, Helvetica, sans-serif" font-size="16" fill="#b08900" text-anchor="middle" font-weight="bold" font-style="normal">PM</text>
<text x="765.0" y="360.0" font-family="Segoe UI, Arial, Helvetica, sans-serif" font-size="10" fill="#8a8a8a" text-anchor="middle" font-weight="normal" font-style="italic">фазова модуляція</text>
</svg>
