<svg xmlns="http://www.w3.org/2000/svg" viewBox="-10 -10 1190 490" font-family="'Segoe UI', 'DejaVu Sans', Arial, sans-serif"><rect x="-10" y="-10" width="1190" height="490" fill="#ffffff"/>
<defs><marker id="arrow" viewBox="0 0 10 10" refX="9" refY="5" markerWidth="7" markerHeight="7" orient="auto-start-reverse"><path d="M0 0 L10 5 L0 10 z" fill="#333333"/></marker></defs>
<text x="590.0" y="32.0" font-family="'Segoe UI', 'DejaVu Sans', Arial, sans-serif" font-size="17" fill="#1a1a1a" text-anchor="middle" font-weight="700">Сімдесят років ідеї «ключ — значення»: три нитки</text>
<rect x="24.0" y="58.0" width="1132.0" height="100.0" rx="6" fill="#fafbfc" stroke="#6b7280" stroke-width="1.0"/>
<rect x="24.0" y="58.0" width="152.0" height="100.0" rx="6" fill="none" stroke="none" stroke-width="1.5"/><text x="100.0" y="96.6" font-family="'Segoe UI', 'DejaVu Sans', Arial, sans-serif" font-size="12" fill="#2457d6" text-anchor="middle" font-weight="700"><tspan x="100.0" dy="0.0">Механізм:</tspan><tspan x="100.0" dy="15.6">як порахувати</tspan><tspan x="100.0" dy="15.6">адресу</tspan></text>
<rect x="190.0" y="64.0" width="146.0" height="88.0" rx="6" fill="#f4f6f8" stroke="#2457d6" stroke-width="1.6"/>
<text x="263.0" y="85.0" font-family="'Segoe UI', 'DejaVu Sans', Arial, sans-serif" font-size="15" fill="#2457d6" text-anchor="middle" font-weight="700">1953</text>
<rect x="196.0" y="94.0" width="134.0" height="52.0" rx="6" fill="none" stroke="none" stroke-width="1.5"/><text x="263.0" y="116.7" font-family="'Segoe UI', 'DejaVu Sans', Arial, sans-serif" font-size="11" fill="#1a1a1a" text-anchor="middle"><tspan x="263.0" dy="0.0">Лун: ланцюжки</tspan><tspan x="263.0" dy="14.3">у нотатці IBM</tspan></text>
<rect x="354.0" y="64.0" width="146.0" height="88.0" rx="6" fill="#f4f6f8" stroke="#2457d6" stroke-width="1.6"/>
<text x="427.0" y="85.0" font-family="'Segoe UI', 'DejaVu Sans', Arial, sans-serif" font-size="15" fill="#2457d6" text-anchor="middle" font-weight="700">1954</text>
<rect x="360.0" y="94.0" width="134.0" height="52.0" rx="6" fill="none" stroke="none" stroke-width="1.5"/><text x="427.0" y="109.5" font-family="'Segoe UI', 'DejaVu Sans', Arial, sans-serif" font-size="11" fill="#1a1a1a" text-anchor="middle"><tspan x="427.0" dy="0.0">Амдал, Бьоме,</tspan><tspan x="427.0" dy="14.3">Рочестер, Семюел:</tspan><tspan x="427.0" dy="14.3">відкрита адресація</tspan></text>
<rect x="518.0" y="64.0" width="146.0" height="88.0" rx="6" fill="#f4f6f8" stroke="#2457d6" stroke-width="1.6"/>
<text x="591.0" y="85.0" font-family="'Segoe UI', 'DejaVu Sans', Arial, sans-serif" font-size="15" fill="#2457d6" text-anchor="middle" font-weight="700">1956</text>
<rect x="524.0" y="94.0" width="134.0" height="52.0" rx="6" fill="none" stroke="none" stroke-width="1.5"/><text x="591.0" y="116.7" font-family="'Segoe UI', 'DejaVu Sans', Arial, sans-serif" font-size="11" fill="#1a1a1a" text-anchor="middle"><tspan x="591.0" dy="0.0">Дьюмі: перша</tspan><tspan x="591.0" dy="14.3">публікація</tspan></text>
<rect x="682.0" y="64.0" width="146.0" height="88.0" rx="6" fill="#f4f6f8" stroke="#2457d6" stroke-width="1.6"/>
<text x="755.0" y="85.0" font-family="'Segoe UI', 'DejaVu Sans', Arial, sans-serif" font-size="15" fill="#2457d6" text-anchor="middle" font-weight="700">1957</text>
<rect x="688.0" y="94.0" width="134.0" height="52.0" rx="6" fill="none" stroke="none" stroke-width="1.5"/><text x="755.0" y="116.7" font-family="'Segoe UI', 'DejaVu Sans', Arial, sans-serif" font-size="11" fill="#1a1a1a" text-anchor="middle"><tspan x="755.0" dy="0.0">Єршов: те саме</tspan><tspan x="755.0" dy="14.3">незалежно, СРСР</tspan></text>
<rect x="846.0" y="64.0" width="146.0" height="88.0" rx="6" fill="#f4f6f8" stroke="#2457d6" stroke-width="1.6"/>
<text x="919.0" y="85.0" font-family="'Segoe UI', 'DejaVu Sans', Arial, sans-serif" font-size="15" fill="#2457d6" text-anchor="middle" font-weight="700">1957</text>
<rect x="852.0" y="94.0" width="134.0" height="52.0" rx="6" fill="none" stroke="none" stroke-width="1.5"/><text x="919.0" y="116.7" font-family="'Segoe UI', 'DejaVu Sans', Arial, sans-serif" font-size="11" fill="#1a1a1a" text-anchor="middle"><tspan x="919.0" dy="0.0">Петерсон: перша</tspan><tspan x="919.0" dy="14.3">велика праця</tspan></text>
<rect x="1010.0" y="64.0" width="146.0" height="88.0" rx="6" fill="#f4f6f8" stroke="#2457d6" stroke-width="1.6"/>
<text x="1083.0" y="85.0" font-family="'Segoe UI', 'DejaVu Sans', Arial, sans-serif" font-size="15" fill="#2457d6" text-anchor="middle" font-weight="700">1967</text>
<rect x="1016.0" y="94.0" width="134.0" height="52.0" rx="6" fill="none" stroke="none" stroke-width="1.5"/><text x="1083.0" y="116.7" font-family="'Segoe UI', 'DejaVu Sans', Arial, sans-serif" font-size="11" fill="#1a1a1a" text-anchor="middle"><tspan x="1083.0" dy="0.0">слово «хешування»</tspan><tspan x="1083.0" dy="14.3">потрапляє в друк</tspan></text>
<rect x="24.0" y="190.0" width="1132.0" height="100.0" rx="6" fill="#fafbfc" stroke="#6b7280" stroke-width="1.0"/>
<rect x="24.0" y="190.0" width="152.0" height="100.0" rx="6" fill="none" stroke="none" stroke-width="1.5"/><text x="100.0" y="228.6" font-family="'Segoe UI', 'DejaVu Sans', Arial, sans-serif" font-size="12" fill="#27ae60" text-anchor="middle" font-weight="700"><tspan x="100.0" dy="0.0">Поняття:</tspan><tspan x="100.0" dy="15.6">словник</tspan><tspan x="100.0" dy="15.6">усередині мови</tspan></text>
<rect x="190.0" y="196.0" width="146.0" height="88.0" rx="6" fill="#f4f6f8" stroke="#27ae60" stroke-width="1.6"/>
<text x="263.0" y="217.0" font-family="'Segoe UI', 'DejaVu Sans', Arial, sans-serif" font-size="15" fill="#27ae60" text-anchor="middle" font-weight="700">1960</text>
<rect x="196.0" y="226.0" width="134.0" height="52.0" rx="6" fill="none" stroke="none" stroke-width="1.5"/><text x="263.0" y="248.7" font-family="'Segoe UI', 'DejaVu Sans', Arial, sans-serif" font-size="11" fill="#1a1a1a" text-anchor="middle"><tspan x="263.0" dy="0.0">Lisp: асоціативні</tspan><tspan x="263.0" dy="14.3">списки (a-lists)</tspan></text>
<rect x="354.0" y="196.0" width="146.0" height="88.0" rx="6" fill="#f4f6f8" stroke="#27ae60" stroke-width="1.6"/>
<text x="427.0" y="217.0" font-family="'Segoe UI', 'DejaVu Sans', Arial, sans-serif" font-size="15" fill="#27ae60" text-anchor="middle" font-weight="700">1966</text>
<rect x="360.0" y="226.0" width="134.0" height="52.0" rx="6" fill="none" stroke="none" stroke-width="1.5"/><text x="427.0" y="248.7" font-family="'Segoe UI', 'DejaVu Sans', Arial, sans-serif" font-size="11" fill="#1a1a1a" text-anchor="middle"><tspan x="427.0" dy="0.0">MUMPS: globals —</tspan><tspan x="427.0" dy="14.3">словник на диску</tspan></text>
<rect x="518.0" y="196.0" width="146.0" height="88.0" rx="6" fill="#f4f6f8" stroke="#27ae60" stroke-width="1.6"/>
<text x="591.0" y="217.0" font-family="'Segoe UI', 'DejaVu Sans', Arial, sans-serif" font-size="15" fill="#27ae60" text-anchor="middle" font-weight="700">1967</text>
<rect x="524.0" y="226.0" width="134.0" height="52.0" rx="6" fill="none" stroke="none" stroke-width="1.5"/><text x="591.0" y="248.7" font-family="'Segoe UI', 'DejaVu Sans', Arial, sans-serif" font-size="11" fill="#1a1a1a" text-anchor="middle"><tspan x="591.0" dy="0.0">SNOBOL4: тип</tspan><tspan x="591.0" dy="14.3">TABLE у мові</tspan></text>
<rect x="682.0" y="196.0" width="146.0" height="88.0" rx="6" fill="#f4f6f8" stroke="#27ae60" stroke-width="1.6"/>
<text x="755.0" y="217.0" font-family="'Segoe UI', 'DejaVu Sans', Arial, sans-serif" font-size="15" fill="#27ae60" text-anchor="middle" font-weight="700">1977</text>
<rect x="688.0" y="226.0" width="134.0" height="52.0" rx="6" fill="none" stroke="none" stroke-width="1.5"/><text x="755.0" y="248.7" font-family="'Segoe UI', 'DejaVu Sans', Arial, sans-serif" font-size="11" fill="#1a1a1a" text-anchor="middle"><tspan x="755.0" dy="0.0">awk: словник</tspan><tspan x="755.0" dy="14.3">у один рядок</tspan></text>
<rect x="846.0" y="196.0" width="146.0" height="88.0" rx="6" fill="#f4f6f8" stroke="#27ae60" stroke-width="1.6"/>
<text x="919.0" y="217.0" font-family="'Segoe UI', 'DejaVu Sans', Arial, sans-serif" font-size="15" fill="#27ae60" text-anchor="middle" font-weight="700">1979</text>
<rect x="852.0" y="226.0" width="134.0" height="52.0" rx="6" fill="none" stroke="none" stroke-width="1.5"/><text x="919.0" y="248.7" font-family="'Segoe UI', 'DejaVu Sans', Arial, sans-serif" font-size="11" fill="#1a1a1a" text-anchor="middle"><tspan x="919.0" dy="0.0">dbm: хеш на диску</tspan><tspan x="919.0" dy="14.3">(Unix V7)</tspan></text>
<rect x="1010.0" y="196.0" width="146.0" height="88.0" rx="6" fill="#f4f6f8" stroke="#27ae60" stroke-width="1.6"/>
<text x="1083.0" y="217.0" font-family="'Segoe UI', 'DejaVu Sans', Arial, sans-serif" font-size="15" fill="#27ae60" text-anchor="middle" font-weight="700">1987</text>
<rect x="1016.0" y="226.0" width="134.0" height="52.0" rx="6" fill="none" stroke="none" stroke-width="1.5"/><text x="1083.0" y="248.7" font-family="'Segoe UI', 'DejaVu Sans', Arial, sans-serif" font-size="11" fill="#1a1a1a" text-anchor="middle"><tspan x="1083.0" dy="0.0">Perl: «хеш» стає</tspan><tspan x="1083.0" dy="14.3">побутовим словом</tspan></text>
<rect x="24.0" y="322.0" width="1132.0" height="100.0" rx="6" fill="#fafbfc" stroke="#6b7280" stroke-width="1.0"/>
<rect x="24.0" y="322.0" width="152.0" height="100.0" rx="6" fill="none" stroke="none" stroke-width="1.5"/><text x="100.0" y="360.6" font-family="'Segoe UI', 'DejaVu Sans', Arial, sans-serif" font-size="12" fill="#b7791f" text-anchor="middle" font-weight="700"><tspan x="100.0" dy="0.0">Мережа:</tspan><tspan x="100.0" dy="15.6">словник більший</tspan><tspan x="100.0" dy="15.6">за машину</tspan></text>
<rect x="190.0" y="328.0" width="146.0" height="88.0" rx="6" fill="#f4f6f8" stroke="#b7791f" stroke-width="1.6"/>
<text x="263.0" y="349.0" font-family="'Segoe UI', 'DejaVu Sans', Arial, sans-serif" font-size="15" fill="#b7791f" text-anchor="middle" font-weight="700">1997</text>
<rect x="196.0" y="358.0" width="134.0" height="52.0" rx="6" fill="none" stroke="none" stroke-width="1.5"/><text x="263.0" y="380.7" font-family="'Segoe UI', 'DejaVu Sans', Arial, sans-serif" font-size="11" fill="#1a1a1a" text-anchor="middle"><tspan x="263.0" dy="0.0">консистентне</tspan><tspan x="263.0" dy="14.3">хешування (STOC)</tspan></text>
<rect x="354.0" y="328.0" width="146.0" height="88.0" rx="6" fill="#f4f6f8" stroke="#b7791f" stroke-width="1.6"/>
<text x="427.0" y="349.0" font-family="'Segoe UI', 'DejaVu Sans', Arial, sans-serif" font-size="15" fill="#b7791f" text-anchor="middle" font-weight="700">2003</text>
<rect x="360.0" y="358.0" width="134.0" height="52.0" rx="6" fill="none" stroke="none" stroke-width="1.5"/><text x="427.0" y="380.7" font-family="'Segoe UI', 'DejaVu Sans', Arial, sans-serif" font-size="11" fill="#1a1a1a" text-anchor="middle"><tspan x="427.0" dy="0.0">memcached: словник</tspan><tspan x="427.0" dy="14.3">перетнув мережу</tspan></text>
<rect x="518.0" y="328.0" width="146.0" height="88.0" rx="6" fill="#f4f6f8" stroke="#b7791f" stroke-width="1.6"/>
<text x="591.0" y="349.0" font-family="'Segoe UI', 'DejaVu Sans', Arial, sans-serif" font-size="15" fill="#b7791f" text-anchor="middle" font-weight="700">2007</text>
<rect x="524.0" y="358.0" width="134.0" height="52.0" rx="6" fill="none" stroke="none" stroke-width="1.5"/><text x="591.0" y="373.6" font-family="'Segoe UI', 'DejaVu Sans', Arial, sans-serif" font-size="11" fill="#1a1a1a" text-anchor="middle"><tspan x="591.0" dy="0.0">Dynamo (SOSP):</tspan><tspan x="591.0" dy="14.3">доступність вище</tspan><tspan x="591.0" dy="14.3">за узгодженість</tspan></text>
<rect x="682.0" y="328.0" width="146.0" height="88.0" rx="6" fill="#f4f6f8" stroke="#b7791f" stroke-width="1.6"/>
<text x="755.0" y="349.0" font-family="'Segoe UI', 'DejaVu Sans', Arial, sans-serif" font-size="15" fill="#b7791f" text-anchor="middle" font-weight="700">2008</text>
<rect x="688.0" y="358.0" width="134.0" height="52.0" rx="6" fill="none" stroke="none" stroke-width="1.5"/><text x="755.0" y="380.7" font-family="'Segoe UI', 'DejaVu Sans', Arial, sans-serif" font-size="11" fill="#1a1a1a" text-anchor="middle"><tspan x="755.0" dy="0.0">Cassandra:</tspan><tspan x="755.0" dy="14.3">Dynamo + BigTable</tspan></text>
<rect x="846.0" y="328.0" width="146.0" height="88.0" rx="6" fill="#f4f6f8" stroke="#b7791f" stroke-width="1.6"/>
<text x="919.0" y="349.0" font-family="'Segoe UI', 'DejaVu Sans', Arial, sans-serif" font-size="15" fill="#b7791f" text-anchor="middle" font-weight="700">2009</text>
<rect x="852.0" y="358.0" width="134.0" height="52.0" rx="6" fill="none" stroke="none" stroke-width="1.5"/><text x="919.0" y="380.7" font-family="'Segoe UI', 'DejaVu Sans', Arial, sans-serif" font-size="11" fill="#1a1a1a" text-anchor="middle"><tspan x="919.0" dy="0.0">Redis; зустріч,</tspan><tspan x="919.0" dy="14.3">що назвала NoSQL</tspan></text>
<rect x="1010.0" y="328.0" width="146.0" height="88.0" rx="6" fill="#f4f6f8" stroke="#b7791f" stroke-width="1.6"/>
<text x="1083.0" y="349.0" font-family="'Segoe UI', 'DejaVu Sans', Arial, sans-serif" font-size="15" fill="#b7791f" text-anchor="middle" font-weight="700">2012</text>
<rect x="1016.0" y="358.0" width="134.0" height="52.0" rx="6" fill="none" stroke="none" stroke-width="1.5"/><text x="1083.0" y="380.7" font-family="'Segoe UI', 'DejaVu Sans', Arial, sans-serif" font-size="11" fill="#1a1a1a" text-anchor="middle"><tspan x="1083.0" dy="0.0">DynamoDB: не</tspan><tspan x="1083.0" dy="14.3">алгоритм, а сервіс</tspan></text>
<rect x="24.0" y="428.0" width="1132.0" height="40.0" rx="6" fill="#ffffff" stroke="none" stroke-width="1.5"/><text x="590.0" y="451.1" font-family="'Segoe UI', 'DejaVu Sans', Arial, sans-serif" font-size="9" fill="#1a1a1a" text-anchor="middle"><tspan x="590.0" dy="0.0">Інтерфейс put / get / delete не змінився за всі сімдесят років — змінювалося обмеження під ним: спершу тіснота пам'яті, потім виразність мови, потім диск, потім мережа, а наприкінці — ціна обслуговування.</tspan></text>
</svg>