<svg xmlns="http://www.w3.org/2000/svg" viewBox="-10 -473.2 850 1426.4" font-family="'Segoe UI', 'DejaVu Sans', Arial, sans-serif"><rect x="-10" y="-473.2" width="850" height="1426.4" fill="#ffffff"/>
<defs><marker id="arrow" viewBox="0 0 10 10" refX="9" refY="5" markerWidth="7" markerHeight="7" orient="auto-start-reverse"><path d="M0 0 L10 5 L0 10 z" fill="#333333"/></marker></defs>
<text x="420.0" y="28.0" font-family="'Segoe UI', 'DejaVu Sans', Arial, sans-serif" font-size="15" fill="#1a1a1a" text-anchor="middle" font-weight="700">Структура коронного розряду: чехол іонізації та область дрейфу іонів</text>
<circle cx="140" cy="240" r="75" fill="#3B82F6" opacity="0.18" stroke="#2563EB" stroke-width="1.5" stroke-dasharray="4 4"/>
<rect x="215.0" y="80.0" width="505.0" height="320.0" rx="6" fill="#F3F4F6" stroke="#6b7280" stroke-width="1.0"/>
<line x1="149.0" y1="224.4" x2="720.0" y2="-463.2" stroke="#9CA3AF" stroke-width="1.2" stroke-dasharray="2 2"/>
<line x1="153.8" y1="228.4" x2="720.0" y2="-100.7" stroke="#9CA3AF" stroke-width="1.2" stroke-dasharray="2 2"/>
<line x1="156.9" y1="233.8" x2="720.0" y2="92.2" stroke="#9CA3AF" stroke-width="1.2" stroke-dasharray="2 2"/>
<line x1="158.0" y1="240.0" x2="720.0" y2="240.0" stroke="#9CA3AF" stroke-width="1.2" stroke-dasharray="2 2"/>
<line x1="156.9" y1="246.2" x2="720.0" y2="387.8" stroke="#9CA3AF" stroke-width="1.2" stroke-dasharray="2 2"/>
<line x1="153.8" y1="251.6" x2="720.0" y2="580.7" stroke="#9CA3AF" stroke-width="1.2" stroke-dasharray="2 2"/>
<line x1="149.0" y1="255.6" x2="720.0" y2="943.2" stroke="#9CA3AF" stroke-width="1.2" stroke-dasharray="2 2"/>
<circle cx="140.0" cy="240.0" r="18.0" fill="#EF4444" stroke="#B91C1C" stroke-width="2.5"/>
<text x="140.0" y="245.0" font-family="'Segoe UI', 'DejaVu Sans', Arial, sans-serif" font-size="12" fill="#FFFFFF" text-anchor="middle" font-weight="700">+HV</text>
<circle cx="140" cy="240" r="34" fill="none" stroke="#60A5FA" stroke-width="3.0" opacity="0.8"/>
<circle cx="140" cy="240" r="50" fill="none" stroke="#93C5FD" stroke-width="2.0" opacity="0.5"/>
<line x1="200.0" y1="220.0" x2="162.0" y2="232.0" stroke="#DC2626" stroke-width="2.0"/>
<line x1="195.0" y1="265.0" x2="162.0" y2="250.0" stroke="#DC2626" stroke-width="2.0"/>
<circle cx="200.0" cy="220.0" r="3.0" fill="#DC2626" stroke="#DC2626" stroke-width="1.5"/>
<circle cx="195.0" cy="265.0" r="3.0" fill="#DC2626" stroke="#DC2626" stroke-width="1.5"/>
<rect x="720.0" y="80.0" width="20.0" height="320.0" rx="3" fill="#4B5563" stroke="#1F2937" stroke-width="2.0"/>
<text x="730.0" y="245.0" font-family="'Segoe UI', 'DejaVu Sans', Arial, sans-serif" font-size="11" fill="#FFFFFF" text-anchor="middle" font-weight="700">GND (0 В)</text>
<circle cx="260.0" cy="180.0" r="11.0" fill="#FEE2E2" stroke="#EF4444" stroke-width="1.5"/>
<text x="260.0" y="184.0" font-family="'Segoe UI', 'DejaVu Sans', Arial, sans-serif" font-size="13" fill="#B91C1C" text-anchor="middle" font-weight="700">+</text>
<line x1="272.0" y1="180.0" x2="284.0" y2="180.0" stroke="#EF4444" stroke-width="1.5"/>
<circle cx="320.0" cy="210.0" r="11.0" fill="#FEE2E2" stroke="#EF4444" stroke-width="1.5"/>
<text x="320.0" y="214.0" font-family="'Segoe UI', 'DejaVu Sans', Arial, sans-serif" font-size="13" fill="#B91C1C" text-anchor="middle" font-weight="700">+</text>
<line x1="332.0" y1="210.0" x2="344.0" y2="210.0" stroke="#EF4444" stroke-width="1.5"/>
<circle cx="400.0" cy="160.0" r="11.0" fill="#FEE2E2" stroke="#EF4444" stroke-width="1.5"/>
<text x="400.0" y="164.0" font-family="'Segoe UI', 'DejaVu Sans', Arial, sans-serif" font-size="13" fill="#B91C1C" text-anchor="middle" font-weight="700">+</text>
<line x1="412.0" y1="160.0" x2="424.0" y2="160.0" stroke="#EF4444" stroke-width="1.5"/>
<circle cx="360.0" cy="280.0" r="11.0" fill="#FEE2E2" stroke="#EF4444" stroke-width="1.5"/>
<text x="360.0" y="284.0" font-family="'Segoe UI', 'DejaVu Sans', Arial, sans-serif" font-size="13" fill="#B91C1C" text-anchor="middle" font-weight="700">+</text>
<line x1="372.0" y1="280.0" x2="384.0" y2="280.0" stroke="#EF4444" stroke-width="1.5"/>
<circle cx="450.0" cy="250.0" r="11.0" fill="#FEE2E2" stroke="#EF4444" stroke-width="1.5"/>
<text x="450.0" y="254.0" font-family="'Segoe UI', 'DejaVu Sans', Arial, sans-serif" font-size="13" fill="#B91C1C" text-anchor="middle" font-weight="700">+</text>
<line x1="462.0" y1="250.0" x2="474.0" y2="250.0" stroke="#EF4444" stroke-width="1.5"/>
<circle cx="530.0" cy="200.0" r="11.0" fill="#FEE2E2" stroke="#EF4444" stroke-width="1.5"/>
<text x="530.0" y="204.0" font-family="'Segoe UI', 'DejaVu Sans', Arial, sans-serif" font-size="13" fill="#B91C1C" text-anchor="middle" font-weight="700">+</text>
<line x1="542.0" y1="200.0" x2="554.0" y2="200.0" stroke="#EF4444" stroke-width="1.5"/>
<circle cx="580.0" cy="290.0" r="11.0" fill="#FEE2E2" stroke="#EF4444" stroke-width="1.5"/>
<text x="580.0" y="294.0" font-family="'Segoe UI', 'DejaVu Sans', Arial, sans-serif" font-size="13" fill="#B91C1C" text-anchor="middle" font-weight="700">+</text>
<line x1="592.0" y1="290.0" x2="604.0" y2="290.0" stroke="#EF4444" stroke-width="1.5"/>
<circle cx="660.0" cy="225.0" r="11.0" fill="#FEE2E2" stroke="#EF4444" stroke-width="1.5"/>
<text x="660.0" y="229.0" font-family="'Segoe UI', 'DejaVu Sans', Arial, sans-serif" font-size="13" fill="#B91C1C" text-anchor="middle" font-weight="700">+</text>
<line x1="672.0" y1="225.0" x2="684.0" y2="225.0" stroke="#EF4444" stroke-width="1.5"/>
<circle cx="740.0" cy="275.0" r="11.0" fill="#FEE2E2" stroke="#EF4444" stroke-width="1.5"/>
<text x="740.0" y="279.0" font-family="'Segoe UI', 'DejaVu Sans', Arial, sans-serif" font-size="13" fill="#B91C1C" text-anchor="middle" font-weight="700">+</text>
<line x1="752.0" y1="275.0" x2="764.0" y2="275.0" stroke="#EF4444" stroke-width="1.5"/>
<rect x="20.0" y="70.0" width="210.0" height="100.0" rx="6" fill="#EFF6FF" stroke="#93C5FD" stroke-width="1.5"/><text x="125.0" y="97.5" font-family="'Segoe UI', 'DejaVu Sans', Arial, sans-serif" font-size="10" fill="#1E3A8A" text-anchor="middle"><tspan x="125.0" dy="0.0">Чехол корони (r &lt; r_i)</tspan><tspan x="125.0" dy="13.0">• E &gt; E_c (надпорогове поле)</tspan><tspan x="125.0" dy="13.0">• Ударна іонізація й лавини</tspan><tspan x="125.0" dy="13.0">• Плазмове сяйво та УФ</tspan><tspan x="125.0" dy="13.0">• Утворення озону O₃</tspan></text>
<line x1="130.0" y1="170.0" x2="175.0" y2="205.0" stroke="#2563EB" stroke-width="1.5" stroke-dasharray="2 2"/>
<rect x="370.0" y="400.0" width="360.0" height="65.0" rx="6" fill="#F9FAFB" stroke="#D1D5DB" stroke-width="1.5"/><text x="550.0" y="416.5" font-family="'Segoe UI', 'DejaVu Sans', Arial, sans-serif" font-size="10" fill="#374151" text-anchor="middle"><tspan x="550.0" dy="0.0">Область дрейфу іонів (r &gt; r_i)</tspan><tspan x="550.0" dy="13.0">• E &lt; E_c (поверхня слабкого поля), без іонізації</tspan><tspan x="550.0" dy="13.0">• Струм переносу додатними іонами до катода</tspan><tspan x="550.0" dy="13.0">• Передача імпульсу повітрю (іонний вітер)</tspan></text>
<line x1="140.0" y1="320.0" x2="140.0" y2="350.0" stroke="#2563EB" stroke-width="1.2" stroke-dasharray="3 3"/>
<text x="140.0" y="356.0" font-family="'Segoe UI', 'DejaVu Sans', Arial, sans-serif" font-size="9" fill="#6b7280" text-anchor="middle">r = r₀ (радіус дроту)</text>
<line x1="215.0" y1="320.0" x2="215.0" y2="350.0" stroke="#2563EB" stroke-width="1.2" stroke-dasharray="3 3"/>
<text x="215.0" y="368.0" font-family="'Segoe UI', 'DejaVu Sans', Arial, sans-serif" font-size="9" fill="#2563EB" text-anchor="middle">r = r_i (межа чехла)</text>
</svg>