<svg xmlns="http://www.w3.org/2000/svg" viewBox="0 0 720 380" font-family="'Segoe UI', 'DejaVu Sans', Arial, sans-serif"><rect width="720" height="380" fill="#ffffff"/>
<defs><marker id="arrow" viewBox="0 0 10 10" refX="9" refY="5" markerWidth="7" markerHeight="7" orient="auto-start-reverse"><path d="M0 0 L10 5 L0 10 z" fill="#333333"/></marker></defs>
<text x="360.0" y="24.0" font-family="'Segoe UI', 'DejaVu Sans', Arial, sans-serif" font-size="15" fill="#1a1a1a" text-anchor="middle" font-weight="700">Кодування фронтами: імпульс на кожну зміну, тригер тримає рівень</text>
<line x1="150.0" y1="90.0" x2="650.0" y2="90.0" stroke="#d6dde6" stroke-width="1.2"/>
<text x="142.0" y="68.0" font-family="'Segoe UI', 'DejaVu Sans', Arial, sans-serif" font-size="11" fill="#6b7280" text-anchor="end" font-weight="700">вхід</text>
<polyline points="150.0,90.0 210.0,90.0 210.0,56.0 360.0,56.0 360.0,90.0 480.0,90.0 480.0,56.0 580.0,56.0 580.0,90.0 650.0,90.0" fill="none" stroke="#2457d6" stroke-width="2.6"/>
<line x1="150.0" y1="200.0" x2="650.0" y2="200.0" stroke="#d6dde6" stroke-width="1.2"/>
<text x="142.0" y="178.0" font-family="'Segoe UI', 'DejaVu Sans', Arial, sans-serif" font-size="11" fill="#27ae60" text-anchor="end" font-weight="700">крізь
бар'єр</text>
<polyline points="200.0,200.0 210.0,170.0 216.0,200.0 220.0,200.0" fill="none" stroke="#c0392b" stroke-width="2.6"/>
<polyline points="348.0,200.0 354.0,226.0 360.0,200.0 364.0,226.0 370.0,200.0 372.0,200.0" fill="none" stroke="#c0392b" stroke-width="2.6"/>
<polyline points="470.0,200.0 480.0,170.0 486.0,200.0 490.0,200.0" fill="none" stroke="#c0392b" stroke-width="2.6"/>
<polyline points="568.0,200.0 574.0,226.0 580.0,200.0 584.0,226.0 590.0,200.0 592.0,200.0" fill="none" stroke="#c0392b" stroke-width="2.6"/>
<text x="656.0" y="182.0" font-family="'Segoe UI', 'DejaVu Sans', Arial, sans-serif" font-size="9" fill="#c0392b" text-anchor="start">↑ одна форма</text>
<text x="656.0" y="220.0" font-family="'Segoe UI', 'DejaVu Sans', Arial, sans-serif" font-size="9" fill="#c0392b" text-anchor="start">↓ інша форма</text>
<line x1="150.0" y1="310.0" x2="650.0" y2="310.0" stroke="#d6dde6" stroke-width="1.2"/>
<text x="142.0" y="288.0" font-family="'Segoe UI', 'DejaVu Sans', Arial, sans-serif" font-size="11" fill="#6b7280" text-anchor="end" font-weight="700">вихід</text>
<polyline points="150.0,310.0 210.0,310.0 210.0,276.0 360.0,276.0 360.0,310.0 480.0,310.0 480.0,276.0 580.0,276.0 580.0,310.0 650.0,310.0" fill="none" stroke="#1a1a1a" stroke-width="2.6"/>
<text x="360.0" y="356.0" font-family="'Segoe UI', 'DejaVu Sans', Arial, sans-serif" font-size="11" fill="#6b7280" text-anchor="middle" font-style="italic">Рівень відновлено з фронтів: між імпульсами крізь бар'єр не йде нічого</text>
</svg>